STARTFONT 2.1
FONT -Monotype-Courier-Regular-R-Normal--33-240-100-100-M-138-iso8859-9
SIZE 24 100 100
FONTBOUNDINGBOX 20 33 0 -7

STARTPROPERTIES 24
FOUNDRY "Monotype"
FAMILY_NAME "Courier"
WEIGHT_NAME "Regular"
SLANT "R"
SETWIDTH_NAME "Normal"
ADD_STYLE_NAME ""
PIXEL_SIZE 33
POINT_SIZE 240
RESOLUTION_X 100
RESOLUTION_Y 100
SPACING "M"
AVERAGE_WIDTH 138
CHARSET_REGISTRY "iso8859"
CHARSET_ENCODING "9"
FACE_NAME "Courier ISO Latin5"
_DEC_DEVICE_FONTNAMES "PS=courier-lat5"
COPYRIGHT "Copyright (c) 1993 Monotype Typography Ltd."
CAP_HEIGHT 18
X_HEIGHT 13
WEIGHT 10
QUAD_WIDTH 20
DEFAULT_CHAR 160
FONT_DESCENT 7
FONT_ASCENT 26
ENDPROPERTIES

CHARS 191

STARTCHAR space
ENCODING 32
SWIDTH 600 0
DWIDTH 20 0
BBX 20 33 0 -7
BITMAP
000000
000000
000000
000000
000000
000000
000000
000000
000000
000000
000000
000000
000000
000000
000000
000000
000000
000000
000000
000000
000000
000000
000000
000000
000000
000000
000000
000000
000000
000000
000000
000000
000000
ENDCHAR

STARTCHAR exclam
ENCODING 33
SWIDTH 600 0
DWIDTH 20 0
BBX 20 33 0 -7
BITMAP
000000
000000
000000
000000
000000
002000
007000
007000
007000
007000
007000
007000
002000
002000
002000
002000
002000
002000
002000
000000
000000
000000
000000
00F000
00F000
00F000
000000
000000
000000
000000
000000
000000
000000
ENDCHAR

STARTCHAR quotedbl
ENCODING 34
SWIDTH 600 0
DWIDTH 20 0
BBX 20 33 0 -7
BITMAP
000000
000000
000000
000000
000000
000000
0F9F00
0F1E00
070E00
070E00
070E00
070E00
070E00
070C00
020400
000000
000000
000000
000000
000000
000000
000000
000000
000000
000000
000000
000000
000000
000000
000000
000000
000000
000000
ENDCHAR

STARTCHAR numbersign
ENCODING 35
SWIDTH 600 0
DWIDTH 20 0
BBX 20 33 0 -7
BITMAP
000000
000000
000000
000000
008400
008800
008800
008800
008800
018800
018800
018800
018800
0FFF80
011800
011800
011800
011800
011800
1FFF00
011000
011000
011000
011000
031000
031000
031000
031000
011000
000000
000000
000000
000000
ENDCHAR

STARTCHAR dollar
ENCODING 36
SWIDTH 600 0
DWIDTH 20 0
BBX 20 33 0 -7
BITMAP
000000
000000
000000
000000
002000
002000
002000
01FE00
030600
060200
040200
040000
060000
060000
03E000
007C00
000600
000300
000100
000100
080100
0C0300
0E0E00
0BFC00
006000
002000
002000
002000
002000
000000
000000
000000
000000
ENDCHAR

STARTCHAR percent
ENCODING 37
SWIDTH 600 0
DWIDTH 20 0
BBX 20 33 0 -7
BITMAP
000000
000000
000000
000000
000000
03C000
062000
0C3000
081000
081000
081000
0C3000
066000
03C080
000700
003800
01C000
1E0000
003C00
004200
008100
008100
008100
008100
006200
003C00
000000
000000
000000
000000
000000
000000
000000
ENDCHAR

STARTCHAR ampersand
ENCODING 38
SWIDTH 600 0
DWIDTH 20 0
BBX 20 33 0 -7
BITMAP
000000
000000
000000
000000
000000
000000
000000
000000
000000
00FC00
019800
030000
020000
020000
030000
010000
018000
03C000
044300
0C6600
082600
083400
081C00
0C0800
041C00
073700
03E000
000000
000000
000000
000000
000000
000000
ENDCHAR

STARTCHAR quoteright
ENCODING 39
SWIDTH 600 0
DWIDTH 20 0
BBX 20 33 0 -7
BITMAP
000000
000000
000000
000000
000000
000000
01F000
01E000
03C000
03C000
038000
030000
070000
060000
060000
000000
000000
000000
000000
000000
000000
000000
000000
000000
000000
000000
000000
000000
000000
000000
000000
000000
000000
ENDCHAR

STARTCHAR parenleft
ENCODING 40
SWIDTH 600 0
DWIDTH 20 0
BBX 20 33 0 -7
BITMAP
000000
000000
000000
000000
000000
000200
000600
000600
000C00
000C00
001800
001800
001800
003800
003000
003000
003000
003000
003000
003000
003000
001800
001800
001800
000800
000C00
000C00
000600
000200
000200
000000
000000
000000
ENDCHAR

STARTCHAR parenright
ENCODING 41
SWIDTH 600 0
DWIDTH 20 0
BBX 20 33 0 -7
BITMAP
000000
000000
000000
000000
000000
040000
060000
060000
030000
030000
018000
018000
018000
00C000
00C000
00C000
00C000
00C000
00C000
00C000
00C000
00C000
018000
018000
018000
030000
030000
060000
060000
040000
000000
000000
000000
ENDCHAR

STARTCHAR asterisk
ENCODING 42
SWIDTH 600 0
DWIDTH 20 0
BBX 20 33 0 -7
BITMAP
000000
000000
000000
000000
000000
000000
004000
004000
004000
004000
1C4700
07FC00
00E000
00A000
01B000
031800
060800
020400
000000
000000
000000
000000
000000
000000
000000
000000
000000
000000
000000
000000
000000
000000
000000
ENDCHAR

STARTCHAR plus
ENCODING 43
SWIDTH 600 0
DWIDTH 20 0
BBX 20 33 0 -7
BITMAP
000000
000000
000000
000000
000000
000000
000000
000000
004000
004000
004000
004000
004000
004000
004000
004000
3FFF80
004000
004000
004000
004000
004000
004000
004000
004000
000000
000000
000000
000000
000000
000000
000000
000000
ENDCHAR

STARTCHAR comma
ENCODING 44
SWIDTH 600 0
DWIDTH 20 0
BBX 20 33 0 -7
BITMAP
000000
000000
000000
000000
000000
000000
000000
000000
000000
000000
000000
000000
000000
000000
000000
000000
000000
000000
000000
000000
000000
01F000
01E000
01C000
03C000
038000
038000
070000
070000
060000
040000
000000
000000
ENDCHAR

STARTCHAR minus
ENCODING 45
SWIDTH 600 0
DWIDTH 20 0
BBX 20 33 0 -7
BITMAP
000000
000000
000000
000000
000000
000000
000000
000000
000000
000000
000000
000000
000000
000000
000000
000000
3FFFC0
000000
000000
000000
000000
000000
000000
000000
000000
000000
000000
000000
000000
000000
000000
000000
000000
ENDCHAR

STARTCHAR period
ENCODING 46
SWIDTH 600 0
DWIDTH 20 0
BBX 20 33 0 -7
BITMAP
000000
000000
000000
000000
000000
000000
000000
000000
000000
000000
000000
000000
000000
000000
000000
000000
000000
000000
000000
000000
000000
000000
00E000
01F000
01F000
00E000
000000
000000
000000
000000
000000
000000
000000
ENDCHAR

STARTCHAR slash
ENCODING 47
SWIDTH 600 0
DWIDTH 20 0
BBX 20 33 0 -7
BITMAP
000000
000000
000000
000000
000100
000300
000200
000600
000600
000400
000C00
000800
001800
001000
003000
002000
006000
004000
00C000
008000
018000
010000
030000
020000
060000
040000
0C0000
080000
080000
000000
000000
000000
000000
ENDCHAR

STARTCHAR zero
ENCODING 48
SWIDTH 600 0
DWIDTH 20 0
BBX 20 33 0 -7
BITMAP
000000
000000
000000
000000
000000
01F800
030C00
060600
040200
0C0300
0C0300
080100
080100
080100
080100
080100
080100
080100
080100
080100
0C0300
040300
060200
060600
039C00
00F800
000000
000000
000000
000000
000000
000000
000000
ENDCHAR

STARTCHAR one
ENCODING 49
SWIDTH 600 0
DWIDTH 20 0
BBX 20 33 0 -7
BITMAP
000000
000000
000000
000000
000000
000000
004000
03C000
1E4000
004000
004000
004000
004000
004000
004000
004000
004000
004000
004000
004000
004000
004000
004000
004000
004000
1FFF00
000000
000000
000000
000000
000000
000000
000000
ENDCHAR

STARTCHAR two
ENCODING 50
SWIDTH 600 0
DWIDTH 20 0
BBX 20 33 0 -7
BITMAP
000000
000000
000000
000000
000000
000000
01F800
030C00
060600
0C0300
080100
000100
000100
000300
000600
000C00
001800
003000
006000
00C000
018000
030000
060000
0C0100
180100
1FFF00
000000
000000
000000
000000
000000
000000
000000
ENDCHAR

STARTCHAR three
ENCODING 51
SWIDTH 600 0
DWIDTH 20 0
BBX 20 33 0 -7
BITMAP
000000
000000
000000
000000
000000
03F000
0E1C00
080600
000600
000200
000200
000600
000600
001C00
00F000
001C00
000600
000200
000100
000100
000100
000100
000300
180600
0E1C00
03F000
000000
000000
000000
000000
000000
000000
000000
ENDCHAR

STARTCHAR four
ENCODING 52
SWIDTH 600 0
DWIDTH 20 0
BBX 20 33 0 -7
BITMAP
000000
000000
000000
000000
000000
000000
001C00
003400
002400
006400
004400
00C400
018400
010400
030400
020400
060400
040400
080400
0FFF00
000400
000400
000400
000400
000400
007F00
000000
000000
000000
000000
000000
000000
000000
ENDCHAR

STARTCHAR five
ENCODING 53
SWIDTH 600 0
DWIDTH 20 0
BBX 20 33 0 -7
BITMAP
000000
000000
000000
000000
000000
000000
07FE00
040000
040000
040000
040000
040000
040000
05F800
070C00
000200
000300
000100
000100
000100
000100
000300
100200
0C0600
071C00
03F800
000000
000000
000000
000000
000000
000000
000000
ENDCHAR

STARTCHAR six
ENCODING 54
SWIDTH 600 0
DWIDTH 20 0
BBX 20 33 0 -7
BITMAP
000000
000000
000000
000000
000000
001F80
007880
00E000
018000
010000
030000
020000
060000
040000
047C00
04C700
058100
070180
060080
060080
060080
020080
030180
010300
00C600
007C00
000000
000000
000000
000000
000000
000000
000000
ENDCHAR

STARTCHAR seven
ENCODING 55
SWIDTH 600 0
DWIDTH 20 0
BBX 20 33 0 -7
BITMAP
000000
000000
000000
000000
000000
000000
0FFF00
080100
080100
000300
000200
000200
000600
000400
000400
000C00
000800
000800
001800
001800
001000
001000
003000
002000
006000
002000
000000
000000
000000
000000
000000
000000
000000
ENDCHAR

STARTCHAR eight
ENCODING 56
SWIDTH 600 0
DWIDTH 20 0
BBX 20 33 0 -7
BITMAP
000000
000000
000000
000000
000000
01F800
030C00
060600
0C0300
080100
080100
080100
0C0300
060600
030C00
01F800
030E00
060300
0C0300
080100
080100
080100
0C0300
060600
030C00
01F800
000000
000000
000000
000000
000000
000000
000000
ENDCHAR

STARTCHAR nine
ENCODING 57
SWIDTH 600 0
DWIDTH 20 0
BBX 20 33 0 -7
BITMAP
000000
000000
000000
000000
000000
00F800
018C00
030600
060300
060100
040180
040180
040180
060180
060380
030680
018C80
00F880
000080
000180
000100
000300
000600
000C00
043800
07E000
000000
000000
000000
000000
000000
000000
000000
ENDCHAR

STARTCHAR colon
ENCODING 58
SWIDTH 600 0
DWIDTH 20 0
BBX 20 33 0 -7
BITMAP
000000
000000
000000
000000
000000
000000
000000
000000
000000
000000
000000
000000
00E000
01F000
01F000
00E000
000000
000000
000000
000000
000000
000000
00E000
01F000
01F000
00E000
000000
000000
000000
000000
000000
000000
000000
ENDCHAR

STARTCHAR semicolon
ENCODING 59
SWIDTH 600 0
DWIDTH 20 0
BBX 20 33 0 -7
BITMAP
000000
000000
000000
000000
000000
000000
000000
000000
000000
000000
000000
000000
00E000
01F000
01F000
00E000
000000
000000
000000
000000
000000
01E000
03C000
03C000
038000
070000
070000
060000
040000
000000
000000
000000
000000
ENDCHAR

STARTCHAR less
ENCODING 60
SWIDTH 600 0
DWIDTH 20 0
BBX 20 33 0 -7
BITMAP
000000
000000
000000
000000
000000
000000
000000
000000
000080
000380
000E00
001C00
007000
01C000
070000
1C0000
380000
1C0000
070000
01C000
006000
003800
000E00
000380
000080
000000
000000
000000
000000
000000
000000
000000
000000
ENDCHAR

STARTCHAR equal
ENCODING 61
SWIDTH 600 0
DWIDTH 20 0
BBX 20 33 0 -7
BITMAP
000000
000000
000000
000000
000000
000000
000000
000000
000000
000000
000000
000000
000000
000000
3FFFC0
000000
000000
000000
000000
3FFFC0
000000
000000
000000
000000
000000
000000
000000
000000
000000
000000
000000
000000
000000
ENDCHAR

STARTCHAR greater
ENCODING 62
SWIDTH 600 0
DWIDTH 20 0
BBX 20 33 0 -7
BITMAP
000000
000000
000000
000000
000000
000000
000000
000000
300000
1C0000
060000
038000
00E000
003800
000C00
000700
0001C0
000380
000E00
003800
00E000
018000
070000
3C0000
100000
000000
000000
000000
000000
000000
000000
000000
000000
ENDCHAR

STARTCHAR question
ENCODING 63
SWIDTH 600 0
DWIDTH 20 0
BBX 20 33 0 -7
BITMAP
000000
000000
000000
000000
000000
000000
000000
03F800
0E0E00
080600
080300
000100
000100
000300
000300
000C00
007800
006000
004000
004000
000000
000000
000000
01F000
01F000
01F000
000000
000000
000000
000000
000000
000000
000000
ENDCHAR

STARTCHAR at
ENCODING 64
SWIDTH 600 0
DWIDTH 20 0
BBX 20 33 0 -7
BITMAP
000000
000000
000000
000000
000000
01F800
038C00
060600
040600
040200
0C0200
080200
081E00
087200
084200
08C200
088200
088200
08C200
086200
083F00
080000
0C0000
0C0000
040000
060200
030E00
01F800
000000
000000
000000
000000
000000
ENDCHAR

STARTCHAR A
ENCODING 65
SWIDTH 600 0
DWIDTH 20 0
BBX 20 33 0 -7
BITMAP
000000
000000
000000
000000
000000
000000
000000
000000
1FE000
00D000
009000
019000
011800
010800
030C00
020400
060400
060600
040200
0FFF00
080100
180100
180180
100080
3000C0
FE07F0
000000
000000
000000
000000
000000
000000
000000
ENDCHAR

STARTCHAR B
ENCODING 66
SWIDTH 600 0
DWIDTH 20 0
BBX 20 33 0 -7
BITMAP
000000
000000
000000
000000
000000
000000
000000
000000
7FFC00
080E00
080300
080100
080100
080100
080300
080E00
0FFC00
080700
080180
080080
080080
080080
080080
080180
080300
7FFE00
000000
000000
000000
000000
000000
000000
000000
ENDCHAR

STARTCHAR C
ENCODING 67
SWIDTH 600 0
DWIDTH 20 0
BBX 20 33 0 -7
BITMAP
000000
000000
000000
000000
000000
000000
000000
01F880
070E80
0C0380
180180
100080
300080
200000
200000
200000
200000
200000
200000
300000
300000
180000
0800C0
0E0180
038700
01FC00
000000
000000
000000
000000
000000
000000
000000
ENDCHAR

STARTCHAR D
ENCODING 68
SWIDTH 600 0
DWIDTH 20 0
BBX 20 33 0 -7
BITMAP
000000
000000
000000
000000
000000
000000
000000
000000
1FFC00
040600
040300
040180
040080
0400C0
040040
040040
040040
040040
040040
040040
0400C0
040080
040180
040300
040E00
1FFC00
000000
000000
000000
000000
000000
000000
000000
ENDCHAR

STARTCHAR E
ENCODING 69
SWIDTH 600 0
DWIDTH 20 0
BBX 20 33 0 -7
BITMAP
000000
000000
000000
000000
000000
000000
000000
7FFF00
080100
080100
080100
080100
080100
082000
082000
082000
0FE000
082000
082000
080000
080080
080080
080080
080080
080080
7FFF80
000000
000000
000000
000000
000000
000000
000000
ENDCHAR

STARTCHAR F
ENCODING 70
SWIDTH 600 0
DWIDTH 20 0
BBX 20 33 0 -7
BITMAP
000000
000000
000000
000000
000000
000000
000000
3FFFC0
040040
040040
040040
040040
040040
041000
041000
041000
07F000
041000
041000
040000
040000
040000
040000
040000
040000
3FF000
000000
000000
000000
000000
000000
000000
000000
ENDCHAR

STARTCHAR G
ENCODING 71
SWIDTH 600 0
DWIDTH 20 0
BBX 20 33 0 -7
BITMAP
000000
000000
000000
000000
000000
000000
000000
01FC80
070780
0C0180
180080
100080
300000
300000
200000
200000
200000
200000
203FE0
200080
300080
100080
180080
0C0080
070380
01FE00
000000
000000
000000
000000
000000
000000
000000
ENDCHAR

STARTCHAR H
ENCODING 72
SWIDTH 600 0
DWIDTH 20 0
BBX 20 33 0 -7
BITMAP
000000
000000
000000
000000
000000
000000
000000
000000
3F1F80
080200
080200
080200
080200
080200
080200
080200
0FFE00
080200
080200
080200
080200
080200
080200
080200
080200
7F1FC0
000000
000000
000000
000000
000000
000000
000000
ENDCHAR

STARTCHAR I
ENCODING 73
SWIDTH 600 0
DWIDTH 20 0
BBX 20 33 0 -7
BITMAP
000000
000000
000000
000000
000000
000000
000000
000000
1FFF00
004000
004000
004000
004000
004000
004000
004000
004000
004000
004000
004000
004000
004000
004000
004000
004000
1FFF00
000000
000000
000000
000000
000000
000000
000000
ENDCHAR

STARTCHAR J
ENCODING 74
SWIDTH 600 0
DWIDTH 20 0
BBX 20 33 0 -7
BITMAP
000000
000000
000000
000000
000000
000000
000000
00FFE0
000200
000200
000200
000200
000200
000200
000200
000200
000200
100200
100200
100200
100200
100200
100600
180C00
0E1800
03F000
000000
000000
000000
000000
000000
000000
000000
ENDCHAR

STARTCHAR K
ENCODING 75
SWIDTH 600 0
DWIDTH 20 0
BBX 20 33 0 -7
BITMAP
000000
000000
000000
000000
000000
000000
000000
000000
7F8FC0
080300
080600
080C00
081800
086000
08C000
098000
0BE000
0E3000
0C1800
080C00
080400
080600
080200
080300
080300
7F81E0
000000
000000
000000
000000
000000
000000
000000
ENDCHAR

STARTCHAR L
ENCODING 76
SWIDTH 600 0
DWIDTH 20 0
BBX 20 33 0 -7
BITMAP
000000
000000
000000
000000
000000
000000
000000
000000
1FF000
010000
010000
010000
010000
010000
010000
010000
010000
010000
010000
010040
010040
010040
010040
010040
010040
1FFFC0
000000
000000
000000
000000
000000
000000
000000
ENDCHAR

STARTCHAR M
ENCODING 77
SWIDTH 600 0
DWIDTH 20 0
BBX 20 33 0 -7
BITMAP
000000
000000
000000
000000
000000
000000
000000
000000
F803E0
280280
2C0680
240480
260480
260C80
220880
231880
211080
21B080
20A080
20E080
204080
200080
200080
200080
200080
FE0FE0
000000
000000
000000
000000
000000
000000
000000
ENDCHAR

STARTCHAR N
ENCODING 78
SWIDTH 600 0
DWIDTH 20 0
BBX 20 33 0 -7
BITMAP
000000
000000
000000
000000
000000
000000
000000
000000
7C0FE0
0E0080
0A0080
0B0080
098080
088080
08C080
084080
086080
083080
081080
081880
080C80
080C80
080680
080280
080380
3F8180
000000
000000
000000
000000
000000
000000
000000
ENDCHAR

STARTCHAR O
ENCODING 79
SWIDTH 600 0
DWIDTH 20 0
BBX 20 33 0 -7
BITMAP
000000
000000
000000
000000
000000
000000
000000
01F800
070E00
0C0300
080180
180080
3000C0
3000C0
200040
200040
200040
200040
200040
3000C0
1000C0
180180
080100
0C0300
070E00
01F800
000000
000000
000000
000000
000000
000000
000000
ENDCHAR

STARTCHAR P
ENCODING 80
SWIDTH 600 0
DWIDTH 20 0
BBX 20 33 0 -7
BITMAP
000000
000000
000000
000000
000000
000000
000000
1FFE00
020300
020180
0200C0
020040
020040
020040
0200C0
020180
020700
03FE00
020000
020000
020000
020000
020000
020000
020000
1FF800
000000
000000
000000
000000
000000
000000
000000
ENDCHAR

STARTCHAR Q
ENCODING 81
SWIDTH 600 0
DWIDTH 20 0
BBX 20 33 0 -7
BITMAP
000000
000000
000000
000000
000000
000000
000000
01F800
070E00
0C0300
080100
180180
100080
3000C0
200040
200040
200040
200040
200040
300040
3000C0
100080
180180
080100
060300
030E00
00F800
018000
03FCC0
070780
000000
000000
000000
ENDCHAR

STARTCHAR R
ENCODING 82
SWIDTH 600 0
DWIDTH 20 0
BBX 20 33 0 -7
BITMAP
000000
000000
000000
000000
000000
000000
000000
000000
7FF800
080E00
080200
080300
080100
080100
080300
080600
081C00
0FF000
083800
080C00
080600
080200
080300
080180
080080
7F80E0
000000
000000
000000
000000
000000
000000
000000
ENDCHAR

STARTCHAR S
ENCODING 83
SWIDTH 600 0
DWIDTH 20 0
BBX 20 33 0 -7
BITMAP
000000
000000
000000
000000
000000
000000
000000
01FD00
070700
040300
080100
080100
080000
0C0000
060000
03F000
007E00
000300
000180
000080
100080
100080
180180
1C0300
170E00
11FC00
000000
000000
000000
000000
000000
000000
000000
ENDCHAR

STARTCHAR T
ENCODING 84
SWIDTH 600 0
DWIDTH 20 0
BBX 20 33 0 -7
BITMAP
000000
000000
000000
000000
000000
000000
000000
000000
3FFF80
204080
204080
204080
204080
204080
204080
004000
004000
004000
004000
004000
004000
004000
004000
004000
004000
0FFE00
000000
000000
000000
000000
000000
000000
000000
ENDCHAR

STARTCHAR U
ENCODING 85
SWIDTH 600 0
DWIDTH 20 0
BBX 20 33 0 -7
BITMAP
000000
000000
000000
000000
000000
000000
000000
7F1FC0
100100
100100
100100
100100
100100
100100
100100
100100
100100
100100
100100
100100
100100
180300
080200
0C0600
071C00
01F800
000000
000000
000000
000000
000000
000000
000000
ENDCHAR

STARTCHAR V
ENCODING 86
SWIDTH 600 0
DWIDTH 20 0
BBX 20 33 0 -7
BITMAP
000000
000000
000000
000000
000000
000000
000000
FE07F0
3000C0
100080
180180
180100
080100
0C0300
040200
040600
060400
020400
030C00
010800
011800
019800
009000
00F000
006000
006000
000000
000000
000000
000000
000000
000000
000000
ENDCHAR

STARTCHAR W
ENCODING 87
SWIDTH 600 0
DWIDTH 20 0
BBX 20 33 0 -7
BITMAP
000000
000000
000000
000000
000000
000000
000000
7E0FE0
2000C0
3000C0
3000C0
306080
30E080
10D080
109080
109080
119180
111980
190980
1B0980
1B0D00
0A0500
0A0500
0E0500
0E0700
0C0300
000000
000000
000000
000000
000000
000000
000000
ENDCHAR

STARTCHAR X
ENCODING 88
SWIDTH 600 0
DWIDTH 20 0
BBX 20 33 0 -7
BITMAP
000000
000000
000000
000000
000000
000000
000000
000000
7E0FC0
180300
080200
0C0400
060C00
031800
01B000
00A000
004000
00E000
01B000
011800
020800
060C00
0C0600
180300
100100
7E0FC0
000000
000000
000000
000000
000000
000000
000000
ENDCHAR

STARTCHAR Y
ENCODING 89
SWIDTH 600 0
DWIDTH 20 0
BBX 20 33 0 -7
BITMAP
000000
000000
000000
000000
000000
000000
000000
000000
7E0FC0
180300
080200
040600
060C00
020800
011000
01B000
00C000
004000
004000
004000
004000
004000
004000
004000
004000
0FFE00
000000
000000
000000
000000
000000
000000
000000
ENDCHAR

STARTCHAR Z
ENCODING 90
SWIDTH 600 0
DWIDTH 20 0
BBX 20 33 0 -7
BITMAP
000000
000000
000000
000000
000000
000000
000000
000000
0FFE00
080200
080600
080C00
080800
081800
003000
002000
004000
00C000
018000
010100
030100
060100
0C0100
080100
180100
1FFF00
000000
000000
000000
000000
000000
000000
000000
ENDCHAR

STARTCHAR bracketleft
ENCODING 91
SWIDTH 600 0
DWIDTH 20 0
BBX 20 33 0 -7
BITMAP
000000
000000
000000
000000
000000
000000
007C00
004000
004000
004000
004000
004000
004000
004000
004000
004000
004000
004000
004000
004000
004000
004000
004000
004000
004000
004000
004000
004000
004000
007C00
000000
000000
000000
ENDCHAR

STARTCHAR backslash
ENCODING 92
SWIDTH 600 0
DWIDTH 20 0
BBX 20 33 0 -7
BITMAP
000000
000000
000000
000000
080000
080000
0C0000
040000
060000
020000
030000
010000
018000
008000
00C000
004000
006000
002000
003000
001000
001800
000800
000C00
000C00
000400
000600
000200
000300
000100
000000
000000
000000
000000
ENDCHAR

STARTCHAR bracketright
ENCODING 93
SWIDTH 600 0
DWIDTH 20 0
BBX 20 33 0 -7
BITMAP
000000
000000
000000
000000
000000
000000
07C000
004000
004000
004000
004000
004000
004000
004000
004000
004000
004000
004000
004000
004000
004000
004000
004000
004000
004000
004000
004000
004000
004000
07C000
000000
000000
000000
ENDCHAR

STARTCHAR asciicircum
ENCODING 94
SWIDTH 600 0
DWIDTH 20 0
BBX 20 33 0 -7
BITMAP
000000
000000
000000
000000
000000
002000
006000
00F000
019000
011800
030C00
060600
0C0300
080100
000000
000000
000000
000000
000000
000000
000000
000000
000000
000000
000000
000000
000000
000000
000000
000000
000000
000000
000000
ENDCHAR

STARTCHAR underscore
ENCODING 95
SWIDTH 600 0
DWIDTH 20 0
BBX 20 33 0 -7
BITMAP
000000
000000
000000
000000
000000
000000
000000
000000
000000
000000
000000
000000
000000
000000
000000
000000
000000
000000
000000
000000
000000
000000
000000
000000
000000
000000
000000
000000
FFFFF0
FFFFF0
000000
000000
000000
ENDCHAR

STARTCHAR quoteleft
ENCODING 96
SWIDTH 600 0
DWIDTH 20 0
BBX 20 33 0 -7
BITMAP
000000
000000
000000
000000
000000
000000
00F800
007800
003800
003C00
001C00
001C00
000E00
000E00
000600
000000
000000
000000
000000
000000
000000
000000
000000
000000
000000
000000
000000
000000
000000
000000
000000
000000
000000
ENDCHAR

STARTCHAR a
ENCODING 97
SWIDTH 600 0
DWIDTH 20 0
BBX 20 33 0 -7
BITMAP
000000
000000
000000
000000
000000
000000
000000
000000
000000
000000
000000
000000
03F800
0F0C00
000600
000200
000200
000200
03FE00
0E0600
180200
100200
100200
100600
180E00
0C3BC0
07E000
000000
000000
000000
000000
000000
000000
ENDCHAR

STARTCHAR b
ENCODING 98
SWIDTH 600 0
DWIDTH 20 0
BBX 20 33 0 -7
BITMAP
000000
000000
000000
000000
000000
000000
780000
080000
080000
080000
080000
080000
08FC00
098700
0A0180
0E0080
0C00C0
0C0040
080040
080040
080040
0C0040
0C00C0
0E0180
0B0300
798600
00FC00
000000
000000
000000
000000
000000
000000
ENDCHAR

STARTCHAR c
ENCODING 99
SWIDTH 600 0
DWIDTH 20 0
BBX 20 33 0 -7
BITMAP
000000
000000
000000
000000
000000
000000
000000
000000
000000
000000
000000
000000
01FC80
070780
0C0180
080080
180080
100000
100000
100000
100000
180000
080040
0C01C0
070700
01FC00
000000
000000
000000
000000
000000
000000
000000
ENDCHAR

STARTCHAR d
ENCODING 100
SWIDTH 600 0
DWIDTH 20 0
BBX 20 33 0 -7
BITMAP
000000
000000
000000
000000
000000
000000
000F00
000100
000100
000100
000100
000100
03F100
0E1900
180500
100300
300300
300100
200100
200100
200100
300100
300300
180700
0C0D00
0619E0
03F000
000000
000000
000000
000000
000000
000000
ENDCHAR

STARTCHAR e
ENCODING 101
SWIDTH 600 0
DWIDTH 20 0
BBX 20 33 0 -7
BITMAP
000000
000000
000000
000000
000000
000000
000000
000000
000000
000000
000000
000000
03F800
0E0E00
180300
100100
300180
200080
3FFF80
200000
300000
300000
180000
0C0180
070F00
01FC00
000000
000000
000000
000000
000000
000000
000000
ENDCHAR

STARTCHAR f
ENCODING 102
SWIDTH 600 0
DWIDTH 20 0
BBX 20 33 0 -7
BITMAP
000000
000000
000000
000000
000000
000000
003FC0
006040
00C000
008000
008000
008000
0FFF00
008000
008000
008000
008000
008000
008000
008000
008000
008000
008000
008000
008000
0FFF00
000000
000000
000000
000000
000000
000000
000000
ENDCHAR

STARTCHAR g
ENCODING 103
SWIDTH 600 0
DWIDTH 20 0
BBX 20 33 0 -7
BITMAP
000000
000000
000000
000000
000000
000000
000000
000000
000000
000000
000000
000000
07E3C0
0E3A00
180E00
100600
300200
200200
200200
200200
300600
100600
180E00
0E3A00
03E200
000200
000200
000200
000600
000400
001C00
07F000
000000
ENDCHAR

STARTCHAR h
ENCODING 104
SWIDTH 600 0
DWIDTH 20 0
BBX 20 33 0 -7
BITMAP
000000
000000
000000
000000
000000
000000
780000
080000
080000
080000
080000
080000
09F800
0B0C00
0E0600
0C0200
080200
080200
080200
080200
080200
080200
080200
080200
080200
3F0FC0
000000
000000
000000
000000
000000
000000
000000
ENDCHAR

STARTCHAR i
ENCODING 105
SWIDTH 600 0
DWIDTH 20 0
BBX 20 33 0 -7
BITMAP
000000
000000
000000
000000
000000
00C000
00C000
00C000
000000
000000
000000
000000
0FC000
004000
004000
004000
004000
004000
004000
004000
004000
004000
004000
004000
004000
1FFF00
000000
000000
000000
000000
000000
000000
000000
ENDCHAR

STARTCHAR j
ENCODING 106
SWIDTH 600 0
DWIDTH 20 0
BBX 20 33 0 -7
BITMAP
000000
000000
000000
000000
000000
003000
003000
003000
000000
000000
000000
000000
1FF800
000800
000800
000800
000800
000800
000800
000800
000800
000800
000800
000800
000800
000800
000800
000800
000800
001800
003000
1FE000
000000
ENDCHAR

STARTCHAR k
ENCODING 107
SWIDTH 600 0
DWIDTH 20 0
BBX 20 33 0 -7
BITMAP
000000
000000
000000
000000
000000
000000
1E0000
020000
020000
020000
020000
020000
020FC0
020600
020C00
021800
026000
02C000
03E000
033000
021000
020800
020400
020200
020100
1E07E0
000000
000000
000000
000000
000000
000000
000000
ENDCHAR

STARTCHAR l
ENCODING 108
SWIDTH 600 0
DWIDTH 20 0
BBX 20 33 0 -7
BITMAP
000000
000000
000000
000000
000000
000000
0FC000
004000
004000
004000
004000
004000
004000
004000
004000
004000
004000
004000
004000
004000
004000
004000
004000
004000
004000
1FFF00
000000
000000
000000
000000
000000
000000
000000
ENDCHAR

STARTCHAR m
ENCODING 109
SWIDTH 600 0
DWIDTH 20 0
BBX 20 33 0 -7
BITMAP
000000
000000
000000
000000
000000
000000
000000
000000
000000
000000
000000
000000
E78F00
2CD980
306080
206080
204080
204080
204080
204080
204080
204080
204080
204080
204080
FC70E0
000000
000000
000000
000000
000000
000000
000000
ENDCHAR

STARTCHAR n
ENCODING 110
SWIDTH 600 0
DWIDTH 20 0
BBX 20 33 0 -7
BITMAP
000000
000000
000000
000000
000000
000000
000000
000000
000000
000000
000000
000000
39F800
0B0C00
0E0600
0C0200
080200
080200
080200
080200
080200
080200
080200
080200
080200
3F0FC0
000000
000000
000000
000000
000000
000000
000000
ENDCHAR

STARTCHAR o
ENCODING 111
SWIDTH 600 0
DWIDTH 20 0
BBX 20 33 0 -7
BITMAP
000000
000000
000000
000000
000000
000000
000000
000000
000000
000000
000000
000000
03F800
070C00
0C0600
180300
300180
300080
200080
200080
200080
300180
300180
180300
0C0600
071C00
03F800
000000
000000
000000
000000
000000
000000
ENDCHAR

STARTCHAR p
ENCODING 112
SWIDTH 600 0
DWIDTH 20 0
BBX 20 33 0 -7
BITMAP
000000
000000
000000
000000
000000
000000
000000
000000
000000
000000
000000
000000
78FC00
0B8700
0E0180
0C00C0
0C00C0
080040
080040
080040
0C00C0
0C0080
0A0180
0B8700
08FC00
080000
080000
080000
080000
080000
080000
7F8000
000000
ENDCHAR

STARTCHAR q
ENCODING 113
SWIDTH 600 0
DWIDTH 20 0
BBX 20 33 0 -7
BITMAP
000000
000000
000000
000000
000000
000000
000000
000000
000000
000000
000000
000000
03F1E0
0E1D00
180700
100300
300300
200100
200100
200100
300300
100300
180700
0E1D00
03F100
000100
000100
000100
000100
000100
000100
001FE0
000000
ENDCHAR

STARTCHAR r
ENCODING 114
SWIDTH 600 0
DWIDTH 20 0
BBX 20 33 0 -7
BITMAP
000000
000000
000000
000000
000000
000000
000000
000000
000000
000000
000000
000000
1F0F80
0118C0
017040
01C000
018000
010000
010000
010000
010000
010000
010000
010000
010000
1FFE00
000000
000000
000000
000000
000000
000000
000000
ENDCHAR

STARTCHAR s
ENCODING 115
SWIDTH 600 0
DWIDTH 20 0
BBX 20 33 0 -7
BITMAP
000000
000000
000000
000000
000000
000000
000000
000000
000000
000000
000000
000000
03FA00
060E00
0C0200
080200
0C0000
070000
01FC00
000600
000300
100100
100100
180300
1E0E00
13F800
000000
000000
000000
000000
000000
000000
000000
ENDCHAR

STARTCHAR t
ENCODING 116
SWIDTH 600 0
DWIDTH 20 0
BBX 20 33 0 -7
BITMAP
000000
000000
000000
000000
000000
000000
000000
010000
010000
010000
010000
010000
1FFF00
010000
010000
010000
010000
010000
010000
010000
010000
010000
010000
018060
00C3C0
007F00
000000
000000
000000
000000
000000
000000
000000
ENDCHAR

STARTCHAR u
ENCODING 117
SWIDTH 600 0
DWIDTH 20 0
BBX 20 33 0 -7
BITMAP
000000
000000
000000
000000
000000
000000
000000
000000
000000
000000
000000
000000
000000
3C0F00
040100
040100
040100
040100
040100
040100
040100
040100
040100
040300
060700
031DC0
01F000
000000
000000
000000
000000
000000
000000
ENDCHAR

STARTCHAR v
ENCODING 118
SWIDTH 600 0
DWIDTH 20 0
BBX 20 33 0 -7
BITMAP
000000
000000
000000
000000
000000
000000
000000
000000
000000
000000
000000
000000
7F0FE0
180100
080100
0C0300
040200
060600
020400
020C00
030800
010800
019800
009000
00F000
006000
000000
000000
000000
000000
000000
000000
000000
ENDCHAR

STARTCHAR w
ENCODING 119
SWIDTH 600 0
DWIDTH 20 0
BBX 20 33 0 -7
BITMAP
000000
000000
000000
000000
000000
000000
000000
000000
000000
000000
000000
000000
7E07E0
100080
100080
186180
186100
08F100
08D100
0C9100
0C9B00
059A00
050A00
050E00
070E00
060600
000000
000000
000000
000000
000000
000000
000000
ENDCHAR

STARTCHAR x
ENCODING 120
SWIDTH 600 0
DWIDTH 20 0
BBX 20 33 0 -7
BITMAP
000000
000000
000000
000000
000000
000000
000000
000000
000000
000000
000000
000000
3F0FC0
0C0300
060600
030C00
019800
00F000
006000
00F000
019800
030C00
060600
0C0300
180180
3F0FC0
000000
000000
000000
000000
000000
000000
000000
ENDCHAR

STARTCHAR y
ENCODING 121
SWIDTH 600 0
DWIDTH 20 0
BBX 20 33 0 -7
BITMAP
000000
000000
000000
000000
000000
000000
000000
000000
000000
000000
000000
000000
3F07E0
080080
0C0180
040100
060300
020200
030600
010400
018C00
008800
00D800
005000
007000
002000
002000
004000
004000
00C000
008000
3FF000
000000
ENDCHAR

STARTCHAR z
ENCODING 122
SWIDTH 600 0
DWIDTH 20 0
BBX 20 33 0 -7
BITMAP
000000
000000
000000
000000
000000
000000
000000
000000
000000
000000
000000
000000
0FFF00
080200
080600
080C00
001800
003000
006000
00C000
018000
030000
020100
060100
0C0100
0FFF00
000000
000000
000000
000000
000000
000000
000000
ENDCHAR

STARTCHAR braceleft
ENCODING 123
SWIDTH 600 0
DWIDTH 20 0
BBX 20 33 0 -7
BITMAP
000000
000000
000000
000000
000000
001800
007800
006000
004000
004000
004000
004000
004000
004000
004000
004000
00C000
038000
00C000
004000
004000
004000
004000
004000
004000
004000
004000
006000
003800
001800
000000
000000
000000
ENDCHAR

STARTCHAR bar
ENCODING 124
SWIDTH 600 0
DWIDTH 20 0
BBX 20 33 0 -7
BITMAP
000000
000000
000000
000000
000000
004000
004000
004000
004000
004000
004000
004000
004000
004000
004000
004000
004000
004000
004000
004000
004000
004000
004000
004000
004000
004000
004000
004000
004000
004000
000000
000000
000000
ENDCHAR

STARTCHAR braceright
ENCODING 125
SWIDTH 600 0
DWIDTH 20 0
BBX 20 33 0 -7
BITMAP
000000
000000
000000
000000
000000
030000
03C000
00C000
004000
004000
004000
004000
004000
004000
004000
004000
006000
003800
006000
004000
004000
004000
004000
004000
004000
004000
004000
00C000
038000
030000
000000
000000
000000
ENDCHAR

STARTCHAR asciitilde
ENCODING 126
SWIDTH 600 0
DWIDTH 20 0
BBX 20 33 0 -7
BITMAP
000000
000000
000000
000000
000000
000000
000000
000000
000000
000000
000000
000000
000000
000000
078000
0CC180
186100
103300
001E00
000000
000000
000000
000000
000000
000000
000000
000000
000000
000000
000000
000000
000000
000000
ENDCHAR

STARTCHAR space
ENCODING 160
SWIDTH 600 0
DWIDTH 20 0
BBX 20 33 0 -7
BITMAP
000000
000000
000000
000000
000000
000000
000000
000000
000000
000000
000000
000000
000000
000000
000000
000000
000000
000000
000000
000000
000000
000000
000000
000000
000000
000000
000000
000000
000000
000000
000000
000000
000000
ENDCHAR

STARTCHAR exclamdown
ENCODING 161
SWIDTH 600 0
DWIDTH 20 0
BBX 20 33 0 -7
BITMAP
000000
000000
000000
000000
000000
000000
000000
000000
000000
000000
000000
000000
00F000
00F000
00F000
000000
000000
000000
000000
002000
002000
002000
002000
002000
003000
007000
007000
007000
007000
007000
007000
002000
000000
ENDCHAR

STARTCHAR cent
ENCODING 162
SWIDTH 600 0
DWIDTH 20 0
BBX 20 33 0 -7
BITMAP
000000
000000
000000
000000
000000
002000
002000
002000
002000
003000
01FD00
030700
060300
0C0100
080000
080000
080000
0C0000
040000
070300
01FE00
007000
002000
002000
002000
002000
000000
000000
000000
000000
000000
000000
000000
ENDCHAR

STARTCHAR sterling
ENCODING 163
SWIDTH 600 0
DWIDTH 20 0
BBX 20 33 0 -7
BITMAP
000000
000000
000000
000000
000000
000000
000000
00F800
018C00
030600
020000
020000
020000
020000
020000
010000
1FF000
010000
010000
010000
010000
010000
030040
020080
060180
1FFF00
000000
000000
000000
000000
000000
000000
000000
ENDCHAR

STARTCHAR currency
ENCODING 164
SWIDTH 600 0
DWIDTH 20 0
BBX 20 33 0 -7
BITMAP
000000
000000
000000
000000
000000
000000
000000
000000
000000
000000
100100
0DF700
071E00
040400
0C0600
080200
080200
080200
0C0600
040400
0F1E00
09F200
100100
000000
000000
000000
000000
000000
000000
000000
000000
000000
000000
ENDCHAR

STARTCHAR yen
ENCODING 165
SWIDTH 600 0
DWIDTH 20 0
BBX 20 33 0 -7
BITMAP
000000
000000
000000
000000
000000
000000
000000
7E0FC0
180300
080200
0C0600
060C00
020800
031800
011000
01B000
00E000
0FFE00
004000
004000
0FFE00
004000
004000
004000
004000
07FC00
000000
000000
000000
000000
000000
000000
000000
ENDCHAR

STARTCHAR brokenbar
ENCODING 166
SWIDTH 600 0
DWIDTH 20 0
BBX 20 33 0 -7
BITMAP
000000
000000
000000
000000
000000
004000
004000
004000
004000
004000
004000
004000
004000
004000
004000
000000
000000
000000
000000
000000
004000
004000
004000
004000
004000
004000
004000
004000
004000
004000
000000
000000
000000
ENDCHAR

STARTCHAR section
ENCODING 167
SWIDTH 600 0
DWIDTH 20 0
BBX 20 33 0 -7
BITMAP
000000
000000
000000
000000
000000
000000
01FF00
020100
040100
040100
040000
020000
1F0000
20C000
206000
301800
180600
0C0100
030080
00C080
002080
001B00
000C00
000400
100400
100400
100800
1FF000
000000
000000
000000
000000
000000
ENDCHAR

STARTCHAR dieresis
ENCODING 168
SWIDTH 600 0
DWIDTH 20 0
BBX 20 33 0 -7
BITMAP
000000
000000
000000
000000
000000
000000
020400
070E00
020400
000000
000000
000000
000000
000000
000000
000000
000000
000000
000000
000000
000000
000000
000000
000000
000000
000000
000000
000000
000000
000000
000000
000000
000000
ENDCHAR

STARTCHAR copyright
ENCODING 169
SWIDTH 600 0
DWIDTH 20 0
BBX 20 33 0 -7
BITMAP
000000
000000
000000
000000
000000
000000
000000
03F800
0E0700
180180
3000C0
60F460
430C20
C20430
840010
840010
840010
840010
840010
420430
410C20
60F060
3000C0
180180
060600
01F800
000000
000000
000000
000000
000000
000000
000000
ENDCHAR

STARTCHAR ordfeminine
ENCODING 170
SWIDTH 600 0
DWIDTH 20 0
BBX 20 33 0 -7
BITMAP
000000
000000
000000
000000
000000
03F000
021800
000800
01F800
070800
040800
041800
063800
03EE00
000000
000000
000000
000000
000000
000000
000000
000000
000000
000000
000000
000000
000000
000000
000000
000000
000000
000000
000000
ENDCHAR

STARTCHAR guillemotleft
ENCODING 171
SWIDTH 600 0
DWIDTH 20 0
BBX 20 33 0 -7
BITMAP
000000
000000
000000
000000
000000
000000
000000
000000
000000
000000
000000
000000
0040C0
00C180
038300
070600
0E0E00
1C1C00
387000
383800
1C1C00
0E0E00
070700
018300
00C180
0040C0
000000
000000
000000
000000
000000
000000
000000
ENDCHAR

STARTCHAR logicalnot
ENCODING 172
SWIDTH 600 0
DWIDTH 20 0
BBX 20 33 0 -7
BITMAP
000000
000000
000000
000000
000000
000000
000000
000000
000000
000000
000000
000000
000000
000000
000000
000000
FFFF80
000080
000080
000080
000080
000080
000080
000080
000080
000000
000000
000000
000000
000000
000000
000000
000000
ENDCHAR

STARTCHAR hyphen
ENCODING 173
SWIDTH 600 0
DWIDTH 20 0
BBX 20 33 0 -7
BITMAP
000000
000000
000000
000000
000000
000000
000000
000000
000000
000000
000000
000000
000000
000000
000000
000000
1FFF80
1FFF80
000000
000000
000000
000000
000000
000000
000000
000000
000000
000000
000000
000000
000000
000000
000000
ENDCHAR

STARTCHAR registered
ENCODING 174
SWIDTH 600 0
DWIDTH 20 0
BBX 20 33 0 -7
BITMAP
000000
000000
000000
000000
000000
000000
000000
01FC00
060700
080180
100040
23F060
210820
410430
410410
410810
41F010
411010
410810
610430
210420
33C360
1000C0
0C0180
060700
01F800
000000
000000
000000
000000
000000
000000
000000
ENDCHAR

STARTCHAR macron
ENCODING 175
SWIDTH 600 0
DWIDTH 20 0
BBX 20 33 0 -7
BITMAP
000000
000000
000000
000000
000000
000000
000000
07FE00
000000
000000
000000
000000
000000
000000
000000
000000
000000
000000
000000
000000
000000
000000
000000
000000
000000
000000
000000
000000
000000
000000
000000
000000
000000
ENDCHAR

STARTCHAR degree
ENCODING 176
SWIDTH 600 0
DWIDTH 20 0
BBX 20 33 0 -7
BITMAP
000000
000000
00E000
03F800
031800
060C00
060C00
060C00
031800
03F800
00E000
000000
000000
000000
000000
000000
000000
000000
000000
000000
000000
000000
000000
000000
000000
000000
000000
000000
000000
000000
000000
000000
000000
ENDCHAR

STARTCHAR plusminus
ENCODING 177
SWIDTH 600 0
DWIDTH 20 0
BBX 20 33 0 -7
BITMAP
000000
000000
000000
000000
000000
000000
004000
004000
004000
004000
004000
004000
004000
004000
3FFF80
004000
004000
004000
004000
004000
004000
004000
004000
000000
000000
3FFF80
000000
000000
000000
000000
000000
000000
000000
ENDCHAR

STARTCHAR twosuperior
ENCODING 178
SWIDTH 600 0
DWIDTH 20 0
BBX 20 33 0 -7
BITMAP
000000
000000
000000
000000
000000
01E000
021800
060800
000800
001800
003000
006000
008000
010000
060800
07F800
000000
000000
000000
000000
000000
000000
000000
000000
000000
000000
000000
000000
000000
000000
000000
000000
000000
ENDCHAR

STARTCHAR threesuperior
ENCODING 179
SWIDTH 600 0
DWIDTH 20 0
BBX 20 33 0 -7
BITMAP
000000
000000
000000
000000
000000
00F800
010C00
000400
000400
007800
001800
000C00
000400
000400
030800
00F000
000000
000000
000000
000000
000000
000000
000000
000000
000000
000000
000000
000000
000000
000000
000000
000000
000000
ENDCHAR

STARTCHAR acute
ENCODING 180
SWIDTH 600 0
DWIDTH 20 0
BBX 20 33 0 -7
BITMAP
000000
000000
000000
000000
000000
001800
007000
00C000
018000
008000
000000
000000
000000
000000
000000
000000
000000
000000
000000
000000
000000
000000
000000
000000
000000
000000
000000
000000
000000
000000
000000
000000
000000
ENDCHAR

STARTCHAR mu
ENCODING 181
SWIDTH 600 0
DWIDTH 20 0
BBX 20 33 0 -7
BITMAP
000000
000000
000000
000000
000000
000000
000000
000000
000000
000000
000000
000000
000000
3C0F00
040100
040100
040100
040100
040100
040100
040100
040100
040100
040300
060700
071DC0
05F000
040000
040000
040000
040000
040000
040000
ENDCHAR

STARTCHAR paragraph
ENCODING 182
SWIDTH 600 0
DWIDTH 20 0
BBX 20 33 0 -7
BITMAP
000000
000000
000000
000000
000000
000000
01FFC0
072200
0C2200
182200
182200
182200
182200
182200
0C2200
072200
01E200
002200
002200
002200
002200
002200
002200
002200
002200
002200
002200
03F780
000000
000000
000000
000000
000000
ENDCHAR

STARTCHAR periodcentered
ENCODING 183
SWIDTH 600 0
DWIDTH 20 0
BBX 20 33 0 -7
BITMAP
000000
000000
000000
000000
000000
000000
000000
000000
000000
000000
000000
000000
000000
000000
00E000
01F000
01F000
00E000
000000
000000
000000
000000
000000
000000
000000
000000
000000
000000
000000
000000
000000
000000
000000
ENDCHAR

STARTCHAR cedilla
ENCODING 184
SWIDTH 600 0
DWIDTH 20 0
BBX 20 33 0 -7
BITMAP
000000
000000
000000
000000
000000
000000
000000
000000
000000
000000
000000
000000
000000
000000
000000
000000
000000
000000
000000
000000
000000
000000
000000
000000
000000
004000
004000
006000
001000
011000
00E000
000000
000000
ENDCHAR

STARTCHAR onesuperior
ENCODING 185
SWIDTH 600 0
DWIDTH 20 0
BBX 20 33 0 -7
BITMAP
000000
000000
000000
000000
000000
004000
03C000
004000
004000
004000
004000
004000
004000
004000
004000
03F800
000000
000000
000000
000000
000000
000000
000000
000000
000000
000000
000000
000000
000000
000000
000000
000000
000000
ENDCHAR

STARTCHAR ordmasculine
ENCODING 186
SWIDTH 600 0
DWIDTH 20 0
BBX 20 33 0 -7
BITMAP
000000
000000
000000
000000
000000
01F800
030C00
060600
040200
040200
040200
060600
030C00
00F800
000000
000000
000000
000000
000000
000000
000000
000000
000000
000000
000000
000000
000000
000000
000000
000000
000000
000000
000000
ENDCHAR

STARTCHAR guillemotright
ENCODING 187
SWIDTH 600 0
DWIDTH 20 0
BBX 20 33 0 -7
BITMAP
000000
000000
000000
000000
000000
000000
000000
000000
000000
000000
000000
000000
302000
183000
1C1800
0E0C00
070700
038380
01E1C0
01C1C0
038380
070600
0E0C00
1C1800
183000
302000
000000
000000
000000
000000
000000
000000
000000
ENDCHAR

STARTCHAR onequarter
ENCODING 188
SWIDTH 600 0
DWIDTH 20 0
BBX 20 33 0 -7
BITMAP
000000
000000
000000
000000
000000
080000
780000
080000
080000
080000
080010
080070
0800C0
080380
080600
7F1C00
003060
00E0A0
038120
060320
0C0220
000420
0007F0
000020
000020
0000F0
000000
000000
000000
000000
000000
000000
000000
ENDCHAR

STARTCHAR onehalf
ENCODING 189
SWIDTH 600 0
DWIDTH 20 0
BBX 20 33 0 -7
BITMAP
000000
000000
000000
000000
000000
100000
F00000
100000
100000
100000
100060
1000C0
100380
100600
101C00
FE73C0
00E430
038C10
060010
1C0030
300060
0000C0
000100
000600
000C10
000FF0
000000
000000
000000
000000
000000
000000
000000
ENDCHAR

STARTCHAR threequarters
ENCODING 190
SWIDTH 600 0
DWIDTH 20 0
BBX 20 33 0 -7
BITMAP
000000
000000
000000
000000
000000
3C0000
430000
010000
010000
060000
1E0030
030060
0101C0
010300
830E00
7E3800
0061C0
01C140
030240
0E0640
180440
000840
000FE0
000040
000040
0001E0
000000
000000
000000
000000
000000
000000
000000
ENDCHAR

STARTCHAR questiondown
ENCODING 191
SWIDTH 600 0
DWIDTH 20 0
BBX 20 33 0 -7
BITMAP
000000
000000
000000
000000
000000
000000
000000
000000
000000
000000
000000
000000
01F000
01F000
01F000
000000
000000
000000
000000
004000
004000
00C000
03C000
0E0000
180000
180000
100000
100000
180200
0C0200
061E00
03F800
000000
ENDCHAR

STARTCHAR Agrave
ENCODING 192
SWIDTH 600 0
DWIDTH 20 0
BBX 20 33 0 -7
BITMAP
000000
018000
00C000
006000
003800
001000
000000
000000
1FE000
00D000
009000
019000
011800
010800
030C00
020400
060400
060600
040200
0FFF00
080100
180100
180180
100080
3000C0
FE07F0
000000
000000
000000
000000
000000
000000
000000
ENDCHAR

STARTCHAR Aacute
ENCODING 193
SWIDTH 600 0
DWIDTH 20 0
BBX 20 33 0 -7
BITMAP
000000
001800
003000
006000
00C000
018000
000000
000000
1FE000
00D000
009000
019000
011800
010800
030C00
020400
060400
060600
040200
0FFF00
080100
180100
180180
100080
3000C0
FE07F0
000000
000000
000000
000000
000000
000000
000000
ENDCHAR

STARTCHAR Acircumflex
ENCODING 194
SWIDTH 600 0
DWIDTH 20 0
BBX 20 33 0 -7
BITMAP
000000
002000
00F000
019800
030C00
060600
000000
000000
1FE000
00D000
009000
019000
011800
010800
030C00
020400
060400
060600
040200
0FFF00
080100
180100
180180
100080
3000C0
FE07F0
000000
000000
000000
000000
000000
000000
000000
ENDCHAR

STARTCHAR Atilde
ENCODING 195
SWIDTH 600 0
DWIDTH 20 0
BBX 20 33 0 -7
BITMAP
000000
000000
03C200
066600
003C00
000000
000000
1FE000
00D000
009000
019000
011800
010800
030C00
020400
020400
060600
040200
0FFE00
080300
080100
180100
100180
100080
3000C0
FE07F0
000000
000000
000000
000000
000000
000000
000000
ENDCHAR

STARTCHAR Adieresis
ENCODING 196
SWIDTH 600 0
DWIDTH 20 0
BBX 20 33 0 -7
BITMAP
000000
000000
020400
070E00
020400
000000
000000
000000
1FE000
00D000
009000
019800
011800
010800
030C00
020400
060600
060600
040200
0FFF00
080100
080100
180180
100080
3000C0
FE07F0
000000
000000
000000
000000
000000
000000
000000
ENDCHAR

STARTCHAR Aring
ENCODING 197
SWIDTH 600 0
DWIDTH 20 0
BBX 20 33 0 -7
BITMAP
00F000
019800
010800
010800
009800
00F000
000000
000000
1FE000
00D000
009000
019800
010800
010800
030C00
020400
060600
060600
040200
0FFF00
080100
080100
180180
100080
3000C0
FE07F0
000000
000000
000000
000000
000000
000000
000000
ENDCHAR

STARTCHAR AE
ENCODING 198
SWIDTH 600 0
DWIDTH 20 0
BBX 20 33 0 -7
BITMAP
000000
000000
000000
000000
000000
000000
000000
000000
1FFFC0
012040
032040
022040
022040
062040
042200
042200
0C3E00
0C2200
082200
0FE000
182000
102020
102020
302020
302020
F9FFE0
000000
000000
000000
000000
000000
000000
000000
ENDCHAR

STARTCHAR Ccedilla
ENCODING 199
SWIDTH 600 0
DWIDTH 20 0
BBX 20 33 0 -7
BITMAP
000000
000000
000000
000000
000000
000000
000000
03F880
070E80
0C0380
180180
100080
300080
200000
200000
200000
200000
200000
200000
200000
300000
100000
1800C0
0C0180
030F00
01FC00
004000
006000
001000
011000
00E000
000000
000000
ENDCHAR

STARTCHAR Egrave
ENCODING 200
SWIDTH 600 0
DWIDTH 20 0
BBX 20 33 0 -7
BITMAP
030000
018000
00C000
006000
003000
000000
000000
7FFF00
080100
080100
080100
080100
080100
082000
082000
082000
0FE000
082000
082000
080000
080080
080080
080080
080080
080080
7FFF80
000000
000000
000000
000000
000000
000000
000000
ENDCHAR

STARTCHAR Eacute
ENCODING 201
SWIDTH 600 0
DWIDTH 20 0
BBX 20 33 0 -7
BITMAP
003000
006000
00C000
018000
030000
000000
000000
7FFF00
080100
080100
080100
080100
080100
082000
082000
082000
0FE000
082000
082000
080000
080080
080080
080080
080080
080080
7FFF80
000000
000000
000000
000000
000000
000000
000000
ENDCHAR

STARTCHAR Ecircumflex
ENCODING 202
SWIDTH 600 0
DWIDTH 20 0
BBX 20 33 0 -7
BITMAP
004000
01E000
033000
061800
0C0C00
000000
000000
7FFF00
080100
080100
080100
080100
080100
082000
082000
082000
0FE000
082000
082000
080000
080080
080080
080080
080080
080080
7FFF80
000000
000000
000000
000000
000000
000000
000000
ENDCHAR

STARTCHAR Edieresis
ENCODING 203
SWIDTH 600 0
DWIDTH 20 0
BBX 20 33 0 -7
BITMAP
000000
000000
040800
0E1C00
040800
000000
000000
7FFF00
080100
080100
080100
080100
080100
082000
082000
082000
0FE000
082000
082000
080000
080080
080080
080080
080080
080080
7FFF80
000000
000000
000000
000000
000000
000000
000000
ENDCHAR

STARTCHAR Igrave
ENCODING 204
SWIDTH 600 0
DWIDTH 20 0
BBX 20 33 0 -7
BITMAP
000000
010000
01C000
006000
003000
001000
000000
000000
1FFF00
004000
004000
004000
004000
004000
004000
004000
004000
004000
004000
004000
004000
004000
004000
004000
004000
1FFF00
000000
000000
000000
000000
000000
000000
000000
ENDCHAR

STARTCHAR Iacute
ENCODING 205
SWIDTH 600 0
DWIDTH 20 0
BBX 20 33 0 -7
BITMAP
000000
001000
007000
00E000
018000
010000
000000
000000
1FFF00
004000
004000
004000
004000
004000
004000
004000
004000
004000
004000
004000
004000
004000
004000
004000
004000
1FFF00
000000
000000
000000
000000
000000
000000
000000
ENDCHAR

STARTCHAR Icircumflex
ENCODING 206
SWIDTH 600 0
DWIDTH 20 0
BBX 20 33 0 -7
BITMAP
000000
004000
00E000
03B000
070C00
040400
000000
000000
1FFF00
004000
004000
004000
004000
004000
004000
004000
004000
004000
004000
004000
004000
004000
004000
004000
004000
1FFF00
000000
000000
000000
000000
000000
000000
000000
ENDCHAR

STARTCHAR Idieresis
ENCODING 207
SWIDTH 600 0
DWIDTH 20 0
BBX 20 33 0 -7
BITMAP
000000
000000
020C00
070E00
020C00
000000
000000
000000
0FFF00
004000
004000
004000
004000
004000
004000
004000
004000
004000
004000
004000
004000
004000
004000
004000
004000
0FFF00
000000
000000
000000
000000
000000
000000
000000
ENDCHAR

STARTCHAR Gbreve
ENCODING 208
SWIDTH 600 0
DWIDTH 20 0
BBX 20 33 0 -7
BITMAP
000000
060200
020600
038C00
01F800
000000
000000
01FC80
070780
0C0180
180080
100080
300000
300000
200000
200000
200000
200000
203FE0
200080
300080
100080
180080
0C0080
070380
01FE00
000000
000000
000000
000000
000000
000000
000000
ENDCHAR

STARTCHAR Ntilde
ENCODING 209
SWIDTH 600 0
DWIDTH 20 0
BBX 20 33 0 -7
BITMAP
000000
000000
03C200
066600
003C00
000000
000000
7C0FE0
0E0080
0A0080
0B0080
090080
098080
08C080
084080
086080
082080
083080
081880
081880
080C80
080480
080680
080280
080380
3F8180
000000
000000
000000
000000
000000
000000
000000
ENDCHAR

STARTCHAR Ograve
ENCODING 210
SWIDTH 600 0
DWIDTH 20 0
BBX 20 33 0 -7
BITMAP
010000
008000
006000
003000
001800
000000
000000
01F800
070E00
0C0300
080180
180180
1000C0
3000C0
200040
200040
200040
200040
200040
3000C0
1000C0
180180
080180
0C0300
070E00
01F800
000000
000000
000000
000000
000000
000000
000000
ENDCHAR

STARTCHAR Oacute
ENCODING 211
SWIDTH 600 0
DWIDTH 20 0
BBX 20 33 0 -7
BITMAP
000800
001800
006000
00C000
018000
000000
000000
01F800
070E00
0C0300
080180
180180
1000C0
3000C0
200040
200040
200040
200040
200040
3000C0
1000C0
180180
080180
0C0300
070E00
01F800
000000
000000
000000
000000
000000
000000
000000
ENDCHAR

STARTCHAR Ocircumflex
ENCODING 212
SWIDTH 600 0
DWIDTH 20 0
BBX 20 33 0 -7
BITMAP
000000
006000
00D000
039C00
060600
000000
000000
01F800
070E00
0C0300
080180
180180
1000C0
3000C0
200040
200040
200040
200040
200040
3000C0
1000C0
180180
080180
0C0300
070E00
01F800
000000
000000
000000
000000
000000
000000
000000
ENDCHAR

STARTCHAR Otilde
ENCODING 213
SWIDTH 600 0
DWIDTH 20 0
BBX 20 33 0 -7
BITMAP
000000
000000
03C200
066600
003C00
000000
01F800
030E00
0C0300
080100
180180
100080
3000C0
200040
200040
200040
200040
200040
300040
3000C0
100080
180180
080100
0E0300
030E00
01F800
000000
000000
000000
000000
000000
000000
000000
ENDCHAR

STARTCHAR Odieresis
ENCODING 214
SWIDTH 600 0
DWIDTH 20 0
BBX 20 33 0 -7
BITMAP
000000
000000
020400
070E00
020400
000000
000000
01F800
070E00
0C0300
080100
180180
100080
3000C0
200040
200040
200040
200040
200040
200040
3000C0
100080
180180
080100
0C0300
070E00
01F800
000000
000000
000000
000000
000000
000000
ENDCHAR

STARTCHAR multiply
ENCODING 215
SWIDTH 600 0
DWIDTH 20 0
BBX 20 33 0 -7
BITMAP
000000
000000
000000
000000
000000
000000
000000
000000
000000
000000
000000
0C0200
060600
030C00
019800
00F000
006000
00F000
019800
030C00
060700
0C0200
000000
000000
000000
000000
000000
000000
000000
000000
000000
000000
000000
ENDCHAR

STARTCHAR Oslash
ENCODING 216
SWIDTH 600 0
DWIDTH 20 0
BBX 20 33 0 -7
BITMAP
000000
000000
000000
000000
000000
000000
000060
01F8C0
070F80
0C0300
080380
180780
300CC0
3018C0
201040
203040
206040
20C040
218040
3100C0
1300C0
1E0180
0C0180
1C0300
170E00
71F800
200000
000000
000000
000000
000000
000000
000000
ENDCHAR

STARTCHAR Ugrave
ENCODING 217
SWIDTH 600 0
DWIDTH 20 0
BBX 20 33 0 -7
BITMAP
010000
018000
006000
003000
001000
000000
000000
7F1FC0
100100
100100
100100
100100
100100
100100
100100
100100
100100
100100
100100
100100
100100
180300
080200
0C0600
071C00
01F800
000000
000000
000000
000000
000000
000000
000000
ENDCHAR

STARTCHAR Uacute
ENCODING 218
SWIDTH 600 0
DWIDTH 20 0
BBX 20 33 0 -7
BITMAP
001000
003000
00E000
018000
010000
000000
000000
7F1FC0
100100
100100
100100
100100
100100
100100
100100
100100
100100
100100
100100
100100
100100
180300
080200
0C0600
071C00
01F800
000000
000000
000000
000000
000000
000000
000000
ENDCHAR

STARTCHAR Ucircumflex
ENCODING 219
SWIDTH 600 0
DWIDTH 20 0
BBX 20 33 0 -7
BITMAP
004000
00E000
03B800
060C00
040400
000000
000000
7F1FC0
100100
100100
100100
100100
100100
100100
100100
100100
100100
100100
100100
100100
100100
180300
080200
0C0600
071C00
01F800
000000
000000
000000
000000
000000
000000
000000
ENDCHAR

STARTCHAR Udieresis
ENCODING 220
SWIDTH 600 0
DWIDTH 20 0
BBX 20 33 0 -7
BITMAP
000000
020400
070E00
020400
000000
000000
000000
3F0FC0
080100
080100
080100
080100
080100
080100
080100
080100
080100
080100
080100
080100
080100
080100
0C0300
060600
031C00
01F800
000000
000000
000000
000000
000000
000000
000000
ENDCHAR

STARTCHAR Idotaccent
ENCODING 221
SWIDTH 600 0
DWIDTH 20 0
BBX 20 33 0 -7
BITMAP
000000
000000
00E000
00E000
00E000
000000
000000
000000
1FFF00
004000
004000
004000
004000
004000
004000
004000
004000
004000
004000
004000
004000
004000
004000
004000
004000
1FFF00
000000
000000
000000
000000
000000
000000
000000
ENDCHAR

STARTCHAR Scedilla
ENCODING 222
SWIDTH 600 0
DWIDTH 20 0
BBX 20 33 0 -7
BITMAP
000000
000000
000000
000000
000000
000000
000000
01FD00
070700
060300
0C0100
080100
080000
0C0000
070000
03F000
007E00
000300
000180
000080
100080
100080
180180
1C0100
170E00
11FC00
002000
003000
000800
018800
00F000
000000
000000
ENDCHAR

STARTCHAR germandbls
ENCODING 223
SWIDTH 600 0
DWIDTH 20 0
BBX 20 33 0 -7
BITMAP
000000
000000
000000
000000
000000
000000
03E000
063000
0C1800
080800
080800
080800
081800
082000
08F000
081800
080E00
080200
080300
080100
080100
080100
084100
08C300
08C300
7E6600
003C00
000000
000000
000000
000000
000000
000000
ENDCHAR

STARTCHAR agrave
ENCODING 224
SWIDTH 600 0
DWIDTH 20 0
BBX 20 33 0 -7
BITMAP
000000
000000
000000
000000
000000
008000
00C000
003000
001800
000800
000000
000000
03F800
0F0C00
000600
000200
000200
000200
03FE00
0F0600
180200
180200
100200
100600
180E00
0C3BC0
07E000
000000
000000
000000
000000
000000
000000
ENDCHAR

STARTCHAR aacute
ENCODING 225
SWIDTH 600 0
DWIDTH 20 0
BBX 20 33 0 -7
BITMAP
000000
000000
000000
000000
000000
001800
003000
006000
00C000
008000
000000
000000
03F800
0F0C00
000600
000200
000200
000200
03FE00
0F0600
180200
180200
100200
100600
180E00
0C3BC0
07E000
000000
000000
000000
000000
000000
000000
ENDCHAR

STARTCHAR acircumflex
ENCODING 226
SWIDTH 600 0
DWIDTH 20 0
BBX 20 33 0 -7
BITMAP
000000
000000
000000
000000
000000
002000
007000
019800
030E00
020200
000000
000000
03F800
0F0C00
000600
000200
000200
000200
03FE00
0F0600
180200
180200
100200
100600
180E00
0C3BC0
07E000
000000
000000
000000
000000
000000
000000
ENDCHAR

STARTCHAR atilde
ENCODING 227
SWIDTH 600 0
DWIDTH 20 0
BBX 20 33 0 -7
BITMAP
000000
000000
000000
000000
000000
000000
000000
03C200
067600
001C00
000000
000000
03F800
0F0C00
000600
000200
000200
000200
03FE00
0F0600
180200
180200
100200
100600
180E00
0C3BC0
07E000
000000
000000
000000
000000
000000
000000
ENDCHAR

STARTCHAR adieresis
ENCODING 228
SWIDTH 600 0
DWIDTH 20 0
BBX 20 33 0 -7
BITMAP
000000
000000
000000
000000
000000
000000
020400
070E00
020400
000000
000000
000000
07F800
0E0C00
000600
000200
000200
000200
07FE00
1E0600
180200
300200
200200
200600
300E00
187BC0
0FE000
000000
000000
000000
000000
000000
000000
ENDCHAR

STARTCHAR aring
ENCODING 229
SWIDTH 600 0
DWIDTH 20 0
BBX 20 33 0 -7
BITMAP
000000
000000
000000
000000
00F000
019800
010800
010800
009800
00F000
000000
000000
07F800
0E0C00
000600
000200
000200
000200
07FE00
1E0600
180200
300200
200200
200600
300E00
187BC0
0FE000
000000
000000
000000
000000
000000
000000
ENDCHAR

STARTCHAR ae
ENCODING 230
SWIDTH 600 0
DWIDTH 20 0
BBX 20 33 0 -7
BITMAP
000000
000000
000000
000000
000000
000000
000000
000000
000000
000000
000000
1F0F00
319980
00F0C0
006040
006060
004020
1FC020
70FFE0
C04000
804000
806000
C0E000
41F060
6359C0
3E4F80
000000
000000
000000
000000
000000
000000
000000
ENDCHAR

STARTCHAR ccedilla
ENCODING 231
SWIDTH 600 0
DWIDTH 20 0
BBX 20 33 0 -7
BITMAP
000000
000000
000000
000000
000000
000000
000000
000000
000000
000000
000000
000000
01FC80
038780
060180
0C0080
180080
180000
100000
100000
100000
180000
180000
0C00C0
0601C0
038700
01FC00
002000
003000
000800
018800
00F000
000000
ENDCHAR

STARTCHAR egrave
ENCODING 232
SWIDTH 600 0
DWIDTH 20 0
BBX 20 33 0 -7
BITMAP
000000
000000
000000
000000
000000
010000
00C000
006000
003000
001000
000000
000000
03F800
0E0E00
180300
100100
300180
200080
3FFF80
200000
300000
300000
180000
0C0180
070700
01FC00
000000
000000
000000
000000
000000
000000
000000
ENDCHAR

STARTCHAR eacute
ENCODING 233
SWIDTH 600 0
DWIDTH 20 0
BBX 20 33 0 -7
BITMAP
000000
000000
000000
000000
000000
001000
007000
00C000
018000
010000
000000
000000
03F800
0E0E00
180300
100100
300180
200080
3FFF80
200000
300000
300000
180000
0C0180
070700
01FC00
000000
000000
000000
000000
000000
000000
000000
ENDCHAR

STARTCHAR ecircumflex
ENCODING 234
SWIDTH 600 0
DWIDTH 20 0
BBX 20 33 0 -7
BITMAP
000000
000000
000000
000000
000000
004000
00E000
03B800
060C00
040400
000000
000000
03F800
0E0E00
180300
100100
300180
200080
3FFF80
200000
300000
300000
180000
0C0180
070700
01FC00
000000
000000
000000
000000
000000
000000
000000
ENDCHAR

STARTCHAR edieresis
ENCODING 235
SWIDTH 600 0
DWIDTH 20 0
BBX 20 33 0 -7
BITMAP
000000
000000
000000
000000
000000
000000
020400
070E00
020400
000000
000000
000000
01F800
070E00
0C0300
080100
180080
100080
1FFF80
100000
100000
180000
080000
040180
030700
01FC00
000000
000000
000000
000000
000000
000000
000000
ENDCHAR

STARTCHAR igrave
ENCODING 236
SWIDTH 600 0
DWIDTH 20 0
BBX 20 33 0 -7
BITMAP
000000
000000
000000
000000
010000
018000
00C000
006000
003000
000000
000000
000000
0FC000
004000
004000
004000
004000
004000
004000
004000
004000
004000
004000
004000
004000
1FFF00
000000
000000
000000
000000
000000
000000
000000
ENDCHAR

STARTCHAR iacute
ENCODING 237
SWIDTH 600 0
DWIDTH 20 0
BBX 20 33 0 -7
BITMAP
000000
000000
000000
000000
001000
003000
006000
00C000
018000
000000
000000
000000
0FC000
004000
004000
004000
004000
004000
004000
004000
004000
004000
004000
004000
004000
1FFF00
000000
000000
000000
000000
000000
000000
000000
ENDCHAR

STARTCHAR icircumflex
ENCODING 238
SWIDTH 600 0
DWIDTH 20 0
BBX 20 33 0 -7
BITMAP
000000
000000
000000
000000
000000
00E000
01B000
031800
060C00
000000
000000
000000
0FC000
004000
004000
004000
004000
004000
004000
004000
004000
004000
004000
004000
004000
1FFF00
000000
000000
000000
000000
000000
000000
000000
ENDCHAR

STARTCHAR idieresis
ENCODING 239
SWIDTH 600 0
DWIDTH 20 0
BBX 20 33 0 -7
BITMAP
000000
000000
000000
000000
000000
000000
030400
070E00
020400
000000
000000
000000
0FE000
002000
002000
002000
002000
002000
002000
002000
002000
002000
002000
002000
002000
1FFF80
000000
000000
000000
000000
000000
000000
000000
ENDCHAR

STARTCHAR gbreve
ENCODING 240
SWIDTH 600 0
DWIDTH 20 0
BBX 20 33 0 -7
BITMAP
000000
000000
000000
000000
000000
040600
060400
031C00
01F800
000000
000000
000000
07F3C0
0E3A00
180E00
100600
300200
200200
200200
200200
300600
100600
180E00
0E3A00
07E200
000200
000200
000200
000600
000400
001C00
07F000
000000
ENDCHAR

STARTCHAR ntilde
ENCODING 241
SWIDTH 600 0
DWIDTH 20 0
BBX 20 33 0 -7
BITMAP
000000
000000
000000
000000
000000
000000
000000
078200
0CEC00
003800
000000
000000
39F800
0B0C00
0E0600
0C0200
080200
080200
080200
080200
080200
080200
080200
080200
080200
3F0FC0
000000
000000
000000
000000
000000
000000
000000
ENDCHAR

STARTCHAR ograve
ENCODING 242
SWIDTH 600 0
DWIDTH 20 0
BBX 20 33 0 -7
BITMAP
000000
000000
000000
000000
000000
010000
00C000
006000
003000
001000
000000
000000
03F800
060C00
0C0600
180300
300180
300080
200080
200080
200080
300180
300180
180300
0C0600
071C00
03F800
000000
000000
000000
000000
000000
000000
ENDCHAR

STARTCHAR oacute
ENCODING 243
SWIDTH 600 0
DWIDTH 20 0
BBX 20 33 0 -7
BITMAP
000000
000000
000000
000000
000000
001000
007000
00C000
018000
010000
000000
000000
03F800
060C00
0C0600
180300
300180
300080
200080
200080
200080
300180
300180
180300
0C0600
071C00
03F800
000000
000000
000000
000000
000000
000000
ENDCHAR

STARTCHAR ocircumflex
ENCODING 244
SWIDTH 600 0
DWIDTH 20 0
BBX 20 33 0 -7
BITMAP
000000
000000
000000
000000
000000
004000
00E000
03B800
060C00
040400
000000
000000
03F800
060C00
0C0600
180300
300180
300080
200080
200080
200080
300180
300180
180300
0C0600
071C00
03F800
000000
000000
000000
000000
000000
000000
ENDCHAR

STARTCHAR otilde
ENCODING 245
SWIDTH 600 0
DWIDTH 20 0
BBX 20 33 0 -7
BITMAP
000000
000000
000000
000000
000000
000000
000000
078200
0CEE00
003C00
000000
000000
03F800
060C00
0C0600
180300
300180
300080
200080
200080
200080
300180
300180
180300
0C0600
071C00
03F800
000000
000000
000000
000000
000000
000000
ENDCHAR

STARTCHAR odieresis
ENCODING 246
SWIDTH 600 0
DWIDTH 20 0
BBX 20 33 0 -7
BITMAP
000000
000000
000000
000000
000000
000000
020400
070E00
020400
000000
000000
000000
01F800
070E00
0C0300
080100
180180
100080
100080
100080
100080
180180
080100
0C0300
070E00
01F800
000000
000000
000000
000000
000000
000000
000000
ENDCHAR

STARTCHAR divide
ENCODING 247
SWIDTH 600 0
DWIDTH 20 0
BBX 20 33 0 -7
BITMAP
000000
000000
000000
000000
000000
000000
000000
000000
000000
004000
00E000
004000
000000
000000
000000
000000
3FFFC0
000000
000000
000000
000000
004000
00E000
004000
000000
000000
000000
000000
000000
000000
000000
000000
000000
ENDCHAR

STARTCHAR oslash
ENCODING 248
SWIDTH 600 0
DWIDTH 20 0
BBX 20 33 0 -7
BITMAP
000000
000000
000000
000000
000000
000000
000000
000000
000000
000000
000000
0000C0
03F980
060F00
0C0600
180D00
301980
303080
206080
204080
20C080
318180
130180
1E0300
0C0600
1F1C00
71F800
200000
000000
000000
000000
000000
000000
ENDCHAR

STARTCHAR ugrave
ENCODING 249
SWIDTH 600 0
DWIDTH 20 0
BBX 20 33 0 -7
BITMAP
000000
000000
000000
000000
000000
008000
00C000
006000
003000
001800
000000
000000
000000
3C0F00
040100
040100
040100
040100
040100
040100
040100
040100
040100
040300
060700
031DC0
01F000
000000
000000
000000
000000
000000
000000
ENDCHAR

STARTCHAR uacute
ENCODING 250
SWIDTH 600 0
DWIDTH 20 0
BBX 20 33 0 -7
BITMAP
000000
000000
000000
000000
000000
000800
001800
007000
00C000
008000
000000
000000
000000
3C0F00
040100
040100
040100
040100
040100
040100
040100
040100
040100
040300
060700
031DC0
01F000
000000
000000
000000
000000
000000
000000
ENDCHAR

STARTCHAR ucircumflex
ENCODING 251
SWIDTH 600 0
DWIDTH 20 0
BBX 20 33 0 -7
BITMAP
000000
000000
000000
000000
000000
000000
006000
00D800
018C00
020600
000000
000000
000000
3C0F00
040100
040100
040100
040100
040100
040100
040100
040100
040100
040300
060700
031DC0
01F000
000000
000000
000000
000000
000000
000000
ENDCHAR

STARTCHAR udieresis
ENCODING 252
SWIDTH 600 0
DWIDTH 20 0
BBX 20 33 0 -7
BITMAP
000000
000000
000000
000000
000000
000000
000000
020400
070E00
020400
000000
000000
000000
3C1F00
040100
040100
040100
040100
040100
040100
040100
040100
040100
040300
060700
031DC0
01F000
000000
000000
000000
000000
000000
000000
ENDCHAR

STARTCHAR dotlessi
ENCODING 253
SWIDTH 600 0
DWIDTH 20 0
BBX 20 33 0 -7
BITMAP
000000
000000
000000
000000
000000
000000
000000
000000
000000
000000
000000
000000
0FC000
004000
004000
004000
004000
004000
004000
004000
004000
004000
004000
004000
004000
1FFF00
000000
000000
000000
000000
000000
000000
000000
ENDCHAR

STARTCHAR scedilla
ENCODING 254
SWIDTH 600 0
DWIDTH 20 0
BBX 20 33 0 -7
BITMAP
000000
000000
000000
000000
000000
000000
000000
000000
000000
000000
000000
000000
03FA00
060E00
0C0200
080200
0C0000
070000
03F800
000E00
000300
100100
100100
180300
1E1E00
13F800
004000
006000
001000
011000
00E000
000000
000000
ENDCHAR

STARTCHAR ydieresis
ENCODING 255
SWIDTH 600 0
DWIDTH 20 0
BBX 20 33 0 -7
BITMAP
000000
000000
000000
000000
000000
000000
020400
070E00
020400
000000
000000
000000
3F07E0
080080
0C0180
040100
060300
020200
030600
010400
018C00
008800
00D800
005000
007000
002000
002000
004000
004000
00C000
008000
3FF000
000000
ENDCHAR
ENDFONT
